<svg width="216" height="25" viewBox="0 0 216 25" fill="none" xmlns="http://www.w3.org/2000/svg">
<path d="M6.648 24.352C4.6 24.352 3.08533 23.808 2.104 22.72C1.144 21.6107 0.664 19.9467 0.664 17.728V4.032C0.664 3.09333 0.909333 2.37867 1.4 1.888C1.89067 1.39733 2.584 1.152 3.48 1.152C4.39733 1.152 5.10133 1.39733 5.592 1.888C6.104 2.37867 6.36 3.09333 6.36 4.032V17.536C6.36 18.3253 6.50933 18.9013 6.808 19.264C7.128 19.6267 7.53333 19.808 8.024 19.808C8.17333 19.808 8.32267 19.7973 8.472 19.776C8.64267 19.7333 8.824 19.7013 9.016 19.68C9.37867 19.68 9.64533 19.8187 9.816 20.096C10.008 20.3733 10.104 20.9387 10.104 21.792C10.104 22.5387 9.95467 23.104 9.656 23.488C9.35733 23.8507 8.89867 24.0853 8.28 24.192C8.10933 24.2133 7.864 24.2453 7.544 24.288C7.224 24.3307 6.92533 24.352 6.648 24.352ZM20.2088 24.352C18.2888 24.352 16.6248 24.0213 15.2168 23.36C13.8301 22.6773 12.7634 21.7173 12.0168 20.48C11.2701 19.2427 10.8968 17.7813 10.8968 16.096C10.8968 14.4747 11.2488 13.056 11.9528 11.84C12.6781 10.6027 13.6594 9.64267 14.8968 8.96C16.1554 8.256 17.5848 7.904 19.1848 7.904C20.3581 7.904 21.4248 8.096 22.3848 8.48C23.3448 8.84267 24.1661 9.38667 24.8488 10.112C25.5314 10.816 26.0434 11.6693 26.3848 12.672C26.7474 13.6747 26.9288 14.7947 26.9288 16.032C26.9288 16.4587 26.8114 16.7787 26.5768 16.992C26.3421 17.184 25.9688 17.28 25.4568 17.28H15.6648V14.592H22.7688L22.2568 15.008C22.2568 14.2187 22.1501 13.5787 21.9368 13.088C21.7234 12.5973 21.4034 12.224 20.9768 11.968C20.5714 11.712 20.0594 11.584 19.4408 11.584C18.7794 11.584 18.2034 11.744 17.7128 12.064C17.2434 12.3627 16.8808 12.8107 16.6248 13.408C16.3688 14.0053 16.2408 14.752 16.2408 15.648V15.936C16.2408 17.4507 16.5714 18.5387 17.2328 19.2C17.9154 19.84 18.9608 20.16 20.3688 20.16C20.8381 20.16 21.3714 20.1067 21.9688 20C22.5874 19.872 23.1741 19.7013 23.7288 19.488C24.2834 19.2747 24.7634 19.2427 25.1688 19.392C25.5741 19.52 25.8834 19.7547 26.0968 20.096C26.3314 20.416 26.4594 20.7893 26.4808 21.216C26.5021 21.6213 26.4061 22.0267 26.1928 22.432C25.9794 22.816 25.6274 23.1147 25.1368 23.328C24.3901 23.6693 23.5901 23.9253 22.7368 24.096C21.9048 24.2667 21.0621 24.352 20.2088 24.352ZM32.2628 24.288C31.3668 24.288 30.6734 24.0427 30.1828 23.552C29.6921 23.0613 29.4468 22.3467 29.4468 21.408V10.816C29.4468 9.89867 29.6814 9.19467 30.1508 8.704C30.6414 8.21333 31.3348 7.968 32.2308 7.968C33.1268 7.968 33.8094 8.21333 34.2788 8.704C34.7481 9.19467 34.9828 9.89867 34.9828 10.816V12.576L34.6308 11.008C35.0788 10.0693 35.7401 9.32267 36.6148 8.768C37.5108 8.192 38.5668 7.904 39.7828 7.904C40.9348 7.904 41.9161 8.18133 42.7268 8.736C43.5588 9.29067 44.1561 10.1333 44.5188 11.264H44.0708C44.5614 10.2187 45.2974 9.39733 46.2788 8.8C47.2601 8.20267 48.3481 7.904 49.5428 7.904C50.7801 7.904 51.7934 8.14933 52.5828 8.64C53.3721 9.10933 53.9588 9.856 54.3428 10.88C54.7481 11.8827 54.9508 13.152 54.9508 14.688V21.408C54.9508 22.3467 54.6948 23.0613 54.1828 23.552C53.6921 24.0427 52.9881 24.288 52.0708 24.288C51.1748 24.288 50.4814 24.0427 49.9908 23.552C49.5001 23.0613 49.2548 22.3467 49.2548 21.408V14.848C49.2548 13.9307 49.1161 13.2693 48.8388 12.864C48.5614 12.4587 48.1028 12.256 47.4628 12.256C46.6734 12.256 46.0654 12.5333 45.6388 13.088C45.2334 13.6427 45.0308 14.432 45.0308 15.456V21.408C45.0308 22.3467 44.7854 23.0613 44.2948 23.552C43.8041 24.0427 43.1001 24.288 42.1828 24.288C41.2654 24.288 40.5614 24.0427 40.0708 23.552C39.5801 23.0613 39.3348 22.3467 39.3348 21.408V14.848C39.3348 13.9307 39.1961 13.2693 38.9188 12.864C38.6414 12.4587 38.1828 12.256 37.5428 12.256C36.7748 12.256 36.1774 12.5333 35.7508 13.088C35.3454 13.6427 35.1428 14.432 35.1428 15.456V21.408C35.1428 23.328 34.1828 24.288 32.2628 24.288ZM63.7298 24.352C62.5138 24.352 61.4364 24.128 60.4978 23.68C59.5804 23.232 58.8551 22.624 58.3218 21.856C57.8098 21.0667 57.5538 20.1707 57.5538 19.168C57.5538 18.016 57.8524 17.1093 58.4498 16.448C59.0471 15.7867 60.0071 15.3173 61.3298 15.04C62.6524 14.7413 64.4124 14.592 66.6098 14.592H68.3698V17.28H66.6098C65.7778 17.28 65.0844 17.344 64.5298 17.472C63.9964 17.5787 63.6018 17.76 63.3458 18.016C63.0898 18.2507 62.9618 18.56 62.9618 18.944C62.9618 19.4347 63.1324 19.84 63.4738 20.16C63.8364 20.48 64.3484 20.64 65.0098 20.64C65.5431 20.64 66.0124 20.5227 66.4178 20.288C66.8444 20.0533 67.1858 19.7333 67.4418 19.328C67.6978 18.9013 67.8258 18.4107 67.8258 17.856V14.144C67.8258 13.376 67.6231 12.832 67.2178 12.512C66.8338 12.192 66.1618 12.032 65.2018 12.032C64.6898 12.032 64.1138 12.096 63.4738 12.224C62.8338 12.3307 62.1191 12.5333 61.3298 12.832C60.7538 13.0453 60.2631 13.0773 59.8578 12.928C59.4524 12.7787 59.1324 12.5227 58.8978 12.16C58.6844 11.7973 58.5778 11.4027 58.5778 10.976C58.5991 10.5493 58.7378 10.144 58.9938 9.76C59.2711 9.376 59.6871 9.07733 60.2418 8.864C61.2658 8.48 62.2044 8.224 63.0578 8.096C63.9324 7.968 64.7324 7.904 65.4578 7.904C67.2071 7.904 68.6471 8.16 69.7778 8.672C70.9298 9.16267 71.7831 9.93067 72.3378 10.976C72.9138 12 73.2018 13.3227 73.2018 14.944V21.408C73.2018 22.3467 72.9778 23.0613 72.5298 23.552C72.0818 24.0427 71.4311 24.288 70.5778 24.288C69.7031 24.288 69.0311 24.0427 68.5618 23.552C68.1138 23.0613 67.8898 22.3467 67.8898 21.408V20.576L68.0818 21.024C67.9751 21.7067 67.7298 22.2933 67.3458 22.784C66.9618 23.2747 66.4604 23.6587 65.8418 23.936C65.2231 24.2133 64.5191 24.352 63.7298 24.352ZM82.3333 24.352C80.9679 24.352 79.8479 24.1067 78.9733 23.616C78.0986 23.104 77.4373 22.3467 76.9893 21.344C76.5626 20.3413 76.3493 19.072 76.3493 17.536V10.816C76.3493 9.87733 76.5946 9.17333 77.0853 8.704C77.5759 8.21333 78.2799 7.968 79.1973 7.968C80.1146 7.968 80.8186 8.21333 81.3093 8.704C81.7999 9.17333 82.0453 9.87733 82.0453 10.816V17.696C82.0453 18.464 82.2053 19.04 82.5253 19.424C82.8453 19.808 83.3466 20 84.0293 20C84.7973 20 85.4266 19.7227 85.9173 19.168C86.4079 18.6133 86.6533 17.8773 86.6533 16.96V10.816C86.6533 9.87733 86.8986 9.17333 87.3893 8.704C87.8799 8.21333 88.5839 7.968 89.5013 7.968C90.4186 7.968 91.1226 8.21333 91.6133 8.704C92.1039 9.17333 92.3493 9.87733 92.3493 10.816V21.408C92.3493 23.328 91.4319 24.288 89.5973 24.288C88.7013 24.288 88.0079 24.0427 87.5173 23.552C87.0266 23.0613 86.7813 22.3467 86.7813 21.408V19.552L87.2933 21.12C86.8239 22.1653 86.1626 22.9653 85.3093 23.52C84.4773 24.0747 83.4853 24.352 82.3333 24.352ZM102.64 24.288C101.893 24.288 101.253 24.1067 100.72 23.744C100.208 23.36 99.7813 22.7947 99.44 22.048L94.864 11.584C94.608 10.944 94.5227 10.3467 94.608 9.792C94.6933 9.23733 94.96 8.8 95.408 8.48C95.8773 8.13867 96.5173 7.968 97.328 7.968C98.0107 7.968 98.5547 8.128 98.96 8.448C99.3867 8.74667 99.7707 9.344 100.112 10.24L103.344 18.56H102.256L105.648 10.208C105.989 9.33333 106.373 8.74667 106.8 8.448C107.227 8.128 107.813 7.968 108.56 7.968C109.2 7.968 109.712 8.13867 110.096 8.48C110.501 8.8 110.747 9.23733 110.832 9.792C110.917 10.3467 110.811 10.944 110.512 11.584L105.84 22.08C105.52 22.8267 105.093 23.3813 104.56 23.744C104.048 24.1067 103.408 24.288 102.64 24.288ZM118.167 24.352C116.951 24.352 115.874 24.128 114.935 23.68C114.018 23.232 113.293 22.624 112.759 21.856C112.247 21.0667 111.991 20.1707 111.991 19.168C111.991 18.016 112.29 17.1093 112.887 16.448C113.485 15.7867 114.445 15.3173 115.767 15.04C117.09 14.7413 118.85 14.592 121.047 14.592H122.807V17.28H121.047C120.215 17.28 119.522 17.344 118.967 17.472C118.434 17.5787 118.039 17.76 117.783 18.016C117.527 18.2507 117.399 18.56 117.399 18.944C117.399 19.4347 117.57 19.84 117.911 20.16C118.274 20.48 118.786 20.64 119.447 20.64C119.981 20.64 120.45 20.5227 120.855 20.288C121.282 20.0533 121.623 19.7333 121.879 19.328C122.135 18.9013 122.263 18.4107 122.263 17.856V14.144C122.263 13.376 122.061 12.832 121.655 12.512C121.271 12.192 120.599 12.032 119.639 12.032C119.127 12.032 118.551 12.096 117.911 12.224C117.271 12.3307 116.557 12.5333 115.767 12.832C115.191 13.0453 114.701 13.0773 114.295 12.928C113.89 12.7787 113.57 12.5227 113.335 12.16C113.122 11.7973 113.015 11.4027 113.015 10.976C113.037 10.5493 113.175 10.144 113.431 9.76C113.709 9.376 114.125 9.07733 114.679 8.864C115.703 8.48 116.642 8.224 117.495 8.096C118.37 7.968 119.17 7.904 119.895 7.904C121.645 7.904 123.085 8.16 124.215 8.672C125.367 9.16267 126.221 9.93067 126.775 10.976C127.351 12 127.639 13.3227 127.639 14.944V21.408C127.639 22.3467 127.415 23.0613 126.967 23.552C126.519 24.0427 125.869 24.288 125.015 24.288C124.141 24.288 123.469 24.0427 122.999 23.552C122.551 23.0613 122.327 22.3467 122.327 21.408V20.576L122.519 21.024C122.413 21.7067 122.167 22.2933 121.783 22.784C121.399 23.2747 120.898 23.6587 120.279 23.936C119.661 24.2133 118.957 24.352 118.167 24.352ZM133.699 24.288C132.803 24.288 132.109 24.0213 131.619 23.488C131.128 22.9547 130.883 22.1867 130.883 21.184V11.072C130.883 10.0693 131.128 9.30133 131.619 8.768C132.109 8.23467 132.803 7.968 133.699 7.968C134.616 7.968 135.32 8.23467 135.811 8.768C136.323 9.30133 136.579 10.0693 136.579 11.072V21.184C136.579 22.1867 136.333 22.9547 135.843 23.488C135.352 24.0213 134.637 24.288 133.699 24.288ZM133.699 5.696C132.696 5.696 131.917 5.46133 131.363 4.992C130.829 4.52267 130.563 3.84 130.563 2.944C130.563 2.06933 130.829 1.39733 131.363 0.927999C131.917 0.458666 132.696 0.223999 133.699 0.223999C134.744 0.223999 135.533 0.458666 136.067 0.927999C136.6 1.39733 136.867 2.06933 136.867 2.944C136.867 3.84 136.6 4.52267 136.067 4.992C135.533 5.46133 134.744 5.696 133.699 5.696ZM146.155 24.352C145.216 24.352 144.256 24.2773 143.275 24.128C142.315 24 141.44 23.7547 140.651 23.392C140.117 23.1787 139.733 22.8907 139.499 22.528C139.285 22.1653 139.179 21.7813 139.179 21.376C139.2 20.9707 139.317 20.608 139.531 20.288C139.765 19.9467 140.064 19.712 140.427 19.584C140.811 19.4347 141.237 19.4453 141.707 19.616C142.603 19.936 143.403 20.1707 144.107 20.32C144.832 20.448 145.525 20.512 146.187 20.512C146.976 20.512 147.541 20.4053 147.883 20.192C148.224 19.9573 148.395 19.6587 148.395 19.296C148.395 18.976 148.277 18.7307 148.043 18.56C147.829 18.3893 147.52 18.272 147.115 18.208L143.563 17.632C142.24 17.3973 141.216 16.9173 140.491 16.192C139.765 15.4453 139.403 14.4747 139.403 13.28C139.403 12.1707 139.712 11.2213 140.331 10.432C140.971 9.62133 141.835 9.00267 142.923 8.576C144.032 8.128 145.301 7.904 146.731 7.904C147.691 7.904 148.565 7.97867 149.355 8.128C150.144 8.256 150.912 8.50133 151.659 8.864C152.128 9.056 152.459 9.33333 152.651 9.696C152.843 10.0587 152.917 10.4427 152.875 10.848C152.832 11.232 152.693 11.5947 152.459 11.936C152.245 12.256 151.947 12.48 151.563 12.608C151.179 12.7147 150.731 12.6827 150.219 12.512C149.515 12.2347 148.885 12.032 148.331 11.904C147.797 11.776 147.296 11.712 146.827 11.712C145.952 11.712 145.333 11.8293 144.971 12.064C144.608 12.2987 144.427 12.5973 144.427 12.96C144.427 13.2373 144.523 13.472 144.715 13.664C144.907 13.8347 145.205 13.952 145.611 14.016L149.163 14.624C150.528 14.8373 151.573 15.3067 152.299 16.032C153.045 16.736 153.419 17.696 153.419 18.912C153.419 20.64 152.757 21.984 151.435 22.944C150.112 23.8827 148.352 24.352 146.155 24.352ZM163.79 24.352C162.019 24.352 160.472 24.0213 159.15 23.36C157.848 22.6987 156.835 21.7493 156.11 20.512C155.384 19.2533 155.022 17.7813 155.022 16.096C155.022 14.816 155.224 13.6747 155.63 12.672C156.035 11.648 156.622 10.784 157.39 10.08C158.179 9.376 159.107 8.84267 160.174 8.48C161.262 8.096 162.467 7.904 163.79 7.904C164.408 7.904 165.059 7.968 165.742 8.096C166.424 8.20267 167.128 8.416 167.854 8.736C168.366 8.928 168.718 9.22667 168.91 9.632C169.123 10.016 169.208 10.432 169.166 10.88C169.144 11.328 169.016 11.7333 168.782 12.096C168.568 12.4587 168.259 12.704 167.854 12.832C167.47 12.96 167.032 12.9067 166.542 12.672C166.2 12.5013 165.838 12.384 165.454 12.32C165.091 12.2347 164.739 12.192 164.398 12.192C163.822 12.192 163.31 12.2773 162.862 12.448C162.435 12.6187 162.072 12.8747 161.774 13.216C161.475 13.536 161.24 13.9413 161.07 14.432C160.92 14.9227 160.846 15.4773 160.846 16.096C160.846 17.3333 161.155 18.304 161.774 19.008C162.392 19.712 163.267 20.064 164.398 20.064C164.739 20.064 165.091 20.032 165.454 19.968C165.816 19.8827 166.179 19.7547 166.542 19.584C167.032 19.3493 167.47 19.3067 167.854 19.456C168.238 19.584 168.547 19.8293 168.782 20.192C169.016 20.5547 169.144 20.96 169.166 21.408C169.187 21.8347 169.091 22.2507 168.878 22.656C168.664 23.04 168.302 23.328 167.79 23.52C167.086 23.84 166.392 24.0533 165.71 24.16C165.048 24.288 164.408 24.352 163.79 24.352ZM178.913 24.352C177.164 24.352 175.639 24.0213 174.337 23.36C173.036 22.6987 172.023 21.7493 171.297 20.512C170.572 19.2747 170.209 17.8133 170.209 16.128C170.209 14.848 170.412 13.7067 170.817 12.704C171.223 11.68 171.809 10.816 172.577 10.112C173.345 9.38667 174.263 8.84267 175.329 8.48C176.396 8.096 177.591 7.904 178.913 7.904C180.663 7.904 182.188 8.23467 183.489 8.896C184.791 9.55733 185.793 10.5067 186.497 11.744C187.223 12.96 187.585 14.4213 187.585 16.128C187.585 17.3867 187.383 18.528 186.977 19.552C186.572 20.576 185.985 21.4507 185.217 22.176C184.471 22.88 183.553 23.424 182.465 23.808C181.399 24.1707 180.215 24.352 178.913 24.352ZM178.913 20.16C179.489 20.16 180.001 20.0213 180.449 19.744C180.897 19.4453 181.239 19.008 181.473 18.432C181.729 17.8347 181.857 17.0667 181.857 16.128C181.857 14.6987 181.58 13.6747 181.025 13.056C180.471 12.416 179.767 12.096 178.913 12.096C178.337 12.096 177.825 12.2347 177.377 12.512C176.929 12.7893 176.577 13.2267 176.321 13.824C176.065 14.4 175.937 15.168 175.937 16.128C175.937 17.536 176.215 18.56 176.769 19.2C177.324 19.84 178.039 20.16 178.913 20.16ZM193.011 24.288C192.115 24.288 191.422 24.0213 190.931 23.488C190.441 22.9547 190.195 22.1867 190.195 21.184V11.072C190.195 10.0693 190.441 9.30133 190.931 8.768C191.422 8.23467 192.115 7.968 193.011 7.968C193.929 7.968 194.633 8.23467 195.123 8.768C195.635 9.30133 195.891 10.0693 195.891 11.072V21.184C195.891 22.1867 195.646 22.9547 195.155 23.488C194.665 24.0213 193.95 24.288 193.011 24.288ZM193.011 5.696C192.009 5.696 191.23 5.46133 190.675 4.992C190.142 4.52267 189.875 3.84 189.875 2.944C189.875 2.06933 190.142 1.39733 190.675 0.927999C191.23 0.458666 192.009 0.223999 193.011 0.223999C194.057 0.223999 194.846 0.458666 195.379 0.927999C195.913 1.39733 196.179 2.06933 196.179 2.944C196.179 3.84 195.913 4.52267 195.379 4.992C194.846 5.46133 194.057 5.696 193.011 5.696ZM202.011 24.288C201.115 24.288 200.422 24.0427 199.931 23.552C199.441 23.0613 199.195 22.3467 199.195 21.408V10.816C199.195 9.89867 199.43 9.19467 199.899 8.704C200.39 8.21333 201.083 7.968 201.979 7.968C202.875 7.968 203.558 8.21333 204.027 8.704C204.497 9.19467 204.731 9.89867 204.731 10.816V12.32L204.379 11.008C204.891 10.0053 205.617 9.23733 206.555 8.704C207.515 8.17067 208.603 7.904 209.819 7.904C211.078 7.904 212.113 8.14933 212.923 8.64C213.734 9.10933 214.342 9.856 214.747 10.88C215.153 11.8827 215.355 13.152 215.355 14.688V21.408C215.355 22.3467 215.11 23.0613 214.619 23.552C214.129 24.0427 213.425 24.288 212.507 24.288C211.59 24.288 210.886 24.0427 210.395 23.552C209.905 23.0613 209.659 22.3467 209.659 21.408V14.912C209.659 13.952 209.489 13.2693 209.147 12.864C208.827 12.4587 208.347 12.256 207.707 12.256C206.854 12.256 206.171 12.5333 205.659 13.088C205.147 13.6213 204.891 14.3467 204.891 15.264V21.408C204.891 23.328 203.931 24.288 202.011 24.288Z" fill="#EC5A13"/>
</svg>
