<svg width="20" height="20" viewBox="0 0 20 20" fill="none" xmlns="http://www.w3.org/2000/svg">
<path fill-rule="evenodd" clip-rule="evenodd" d="M18.75 17.5C18.75 18.1875 18.19 18.75 17.5 18.75H2.5C1.81 18.75 1.25 18.1875 1.25 17.5V2.5C1.25 1.8125 1.81 1.25 2.5 1.25H17.5C18.19 1.25 18.75 1.8125 18.75 2.5V17.5ZM17.5 0H2.5C1.11937 0 0 1.11875 0 2.5V17.5C0 18.8813 1.11937 20 2.5 20H17.5C18.8806 20 20 18.8813 20 17.5V2.5C20 1.11875 18.8806 0 17.5 0ZM13.75 9.375H10.625V6.25C10.625 5.90625 10.345 5.625 10 5.625C9.655 5.625 9.375 5.90625 9.375 6.25V9.375H6.25C5.905 9.375 5.625 9.65625 5.625 10C5.625 10.3438 5.905 10.625 6.25 10.625H9.375V13.75C9.375 14.0938 9.655 14.375 10 14.375C10.345 14.375 10.625 14.0938 10.625 13.75V10.625H13.75C14.095 10.625 14.375 10.3438 14.375 10C14.375 9.65625 14.095 9.375 13.75 9.375Z" fill="white"/>
</svg>
