<svg width="20" height="20" viewBox="0 0 20 20" fill="none" xmlns="http://www.w3.org/2000/svg">
<path d="M8.65051 0.5C13.1514 0.500211 16.7999 4.14948 16.7999 8.65039C16.7998 10.5592 16.1361 12.3078 15.0382 13.6943L19.2228 17.8789L19.2872 17.9502C19.5913 18.3232 19.5699 18.8738 19.2228 19.2217H19.2218C19.0361 19.4074 18.7919 19.5 18.5499 19.5C18.308 19.5 18.0639 19.4071 17.8781 19.2207V19.2217L13.6945 15.0381C12.3077 16.1362 10.5593 16.7997 8.65051 16.7998C4.1496 16.7998 0.500333 13.1513 0.500122 8.65039C0.500122 4.14935 4.14947 0.5 8.65051 0.5ZM8.65051 2.40039C5.20484 2.40039 2.40051 5.20472 2.40051 8.65039C2.40072 12.0959 5.20497 14.9004 8.65051 14.9004C12.0959 14.9002 14.9003 12.0958 14.9005 8.65039C14.9005 5.20485 12.096 2.4006 8.65051 2.40039ZM14.6788 13.3428C14.6815 13.3449 14.6839 13.3473 14.6866 13.3496L14.6886 13.3486C14.6857 13.3462 14.6826 13.3441 14.6798 13.3418L14.6788 13.3428Z" fill="white" stroke="white"/>
</svg>
