<svg width="25" height="29" viewBox="0 0 25 29" fill="none" xmlns="http://www.w3.org/2000/svg">
<path d="M14.4594 28.7035C19.0563 27.7691 25 24.4157 25 15.7442C25 7.85291 19.304 2.59814 15.2081 0.183635C14.2993 -0.352152 13.2353 0.352462 13.2353 1.41852V4.14529C13.2353 6.29551 12.3438 10.2203 9.86665 11.8528C8.60194 12.6863 7.23606 11.4388 7.08235 9.91726L6.95613 8.66781C6.80941 7.21529 5.3506 6.33352 4.20582 7.21912C2.14922 8.81007 0 11.596 0 15.7442C0 26.3488 7.77778 29 11.6666 29C11.8928 29 12.1306 28.9931 12.3781 28.9787C10.4578 28.8122 7.35294 27.604 7.35294 23.6972C7.35294 20.6411 9.55157 18.5736 11.2221 17.5686C11.6713 17.2982 12.1972 17.6493 12.1972 18.179V19.0576C12.1972 19.7301 12.4537 20.7813 13.0641 21.5008C13.755 22.315 14.769 21.462 14.8507 20.3911C14.8766 20.0534 15.2116 19.838 15.5001 20.0091C16.4432 20.568 17.6471 21.7619 17.6471 23.6972C17.6471 26.7513 15.9868 28.1562 14.4594 28.7035Z" fill="black"/>
</svg>
